<svg xmlns="http://www.w3.org/2000/svg" version="1.1" xmlns:xlink="http://www.w3.org/1999/xlink" width="512" height="512" x="0" y="0" viewBox="0 0 512.001 512" style="enable-background:new 0 0 512 512" xml:space="preserve" class=""><g><path d="M485.574 293.613c13.133-22.566 21.88-47.98 25.067-75.074l.03-.258A196.86 196.86 0 0 0 512 195.543c0-50.79-19.469-97.113-51.328-131.914a10.01 10.01 0 0 0-1.785-1.918c-20.696-22.012-46.414-39.25-75.317-49.844a9.854 9.854 0 0 0-1.61-.57C361.474 3.992 339.427 0 316.458 0c-25.617 0-50.098 4.96-72.539 13.957-.61.184-1.195.426-1.762.723-27.593 11.375-52.031 28.89-71.61 50.832-.64.566-1.21 1.203-1.69 1.906-29.848 34.344-47.942 79.16-47.942 128.125 0 7.34.422 14.586 1.215 21.719.008.09.02.175.031.261a193.97 193.97 0 0 0 8.04 37.567L25.155 360.133c-3.906 3.906-3.906 10.238 0 14.144a9.968 9.968 0 0 0 7.07 2.93 9.968 9.968 0 0 0 7.07-2.93l98.743-98.738a194.995 194.995 0 0 0 9.145 17.805 9.876 9.876 0 0 0 1.14 1.93c24.79 41.628 64.586 73.316 111.875 87.55l-70.445 70.442c-3.902 3.906-3.902 10.238 0 14.144 1.953 1.953 4.516 2.93 7.074 2.93s5.117-.977 7.07-2.93l79.184-79.187c10.852 1.875 22 2.863 33.375 2.863 71.23 0 133.68-38.293 167.867-95.367a9.95 9.95 0 0 0 1.25-2.106zm-86.523.395-35.578-54.75 18.918-58.223 44.964-10.098 11.7-2.625 51.12 52.497a174.19 174.19 0 0 1-20.26 59.89zm-129.606-54.75-35.562 54.722-71.082-13.64a174.269 174.269 0 0 1-20.184-60.41l51.188-51.633 56.722 12.738 12.606 38.8zM170.902 97.516l9.02 56.379-38.977 39.316c.465-35.387 11.438-68.285 29.957-95.695zm116.793 133.191-17.664-54.363 46.242-33.594 46.243 33.598-17.664 54.359zm204.285-36.71-39.18-40.235 6.927-59.547c20.039 28.254 31.93 62.66 32.253 99.781zM442.06 73.038l-8.852 76.09-21.516 4.828-34.832 7.82-50.218-36.484V71.156l54.273-38.898c23.207 9.195 43.992 23.203 61.145 40.781zm-85-48.289-41.024 29.402-45.734-27.98A175.083 175.083 0 0 1 316.457 20a175.22 175.22 0 0 1 40.602 4.75zM246.03 34.766l60.242 36.859v53.668l-35.421 25.734-14.793 10.75-56.657-12.718-11.64-72.762c16.27-17.547 36.07-31.77 58.27-41.531zm-67.765 268.906 53.957 10.36 27.48 47.632c-32.465-11.121-60.668-31.508-81.437-57.992zm108.507 64.89-36.449-63.18 35.531-54.675h31.204l35.53 54.676-36.44 63.176a175.916 175.916 0 0 1-29.692 2.523 175.386 175.386 0 0 1-29.684-2.52zm86.442-6.898 27.465-47.613 53.75-10.098c-20.746 26.348-48.864 46.629-81.215 57.711zm0 0" fill="#000000" opacity="1" data-original="#000000" data-darkreader-inline-fill="" style="--darkreader-inline-fill: #000000;" class=""></path><path d="M137.723 360.133 2.93 494.93c-3.907 3.906-3.907 10.238 0 14.144C4.883 511.024 7.44 512 10 512s5.117-.977 7.07-2.93l134.797-134.793c3.903-3.906 3.903-10.238 0-14.144-3.906-3.903-10.238-3.903-14.144 0zM166.148 481.012c-2.628 0-5.207 1.07-7.066 2.93s-2.934 4.437-2.934 7.078c0 2.628 1.07 5.199 2.934 7.062a10.028 10.028 0 0 0 7.066 2.938 10.03 10.03 0 0 0 7.07-2.938 10.061 10.061 0 0 0 2.93-7.062 10.06 10.06 0 0 0-2.93-7.079 10.073 10.073 0 0 0-7.07-2.93zm0 0" fill="#000000" opacity="1" data-original="#000000" data-darkreader-inline-fill="" style="--darkreader-inline-fill: #000000;" class=""></path></g></svg>
