<svg xmlns="http://www.w3.org/2000/svg" xmlns:xlink="http://www.w3.org/1999/xlink" width="500" zoomAndPan="magnify" viewBox="0 0 375 374.999991" height="500" preserveAspectRatio="xMidYMid meet" version="1.0"><defs><g/></defs><g fill="#000000" fill-opacity="1"><g transform="translate(-0.524619, 182.326142)"><g><path d="M 60.359375 -30.390625 C 58.097656 -25.203125 55.578125 -20.703125 52.796875 -16.890625 C 50.015625 -13.078125 47.09375 -9.875 44.03125 -7.28125 C 40.96875 -4.6875 37.878906 -2.773438 34.765625 -1.546875 C 31.660156 -0.328125 28.644531 0.28125 25.71875 0.28125 C 22.800781 0.28125 20.140625 -0.375 17.734375 -1.6875 C 15.335938 -3.007812 13.242188 -4.988281 11.453125 -7.625 C 9.660156 -10.269531 8.222656 -13.523438 7.140625 -17.390625 C 6.054688 -21.253906 5.515625 -25.773438 5.515625 -30.953125 C 5.515625 -39.804688 6.738281 -48.546875 9.1875 -57.171875 C 11.632812 -65.796875 15.070312 -73.546875 19.5 -80.421875 C 23.9375 -87.304688 29.191406 -92.84375 35.265625 -97.03125 C 41.335938 -101.226562 48.050781 -103.328125 55.40625 -103.328125 C 57.664062 -103.328125 59.832031 -102.851562 61.90625 -101.90625 C 63.976562 -100.96875 65.769531 -99.648438 67.28125 -97.953125 C 68.789062 -96.253906 69.992188 -94.179688 70.890625 -91.734375 C 71.785156 -89.285156 72.234375 -86.550781 72.234375 -83.53125 C 72.234375 -82.96875 72.234375 -82.378906 72.234375 -81.765625 C 72.234375 -81.148438 72.179688 -80.515625 72.078125 -79.859375 L 53.5625 -74.90625 C 52.4375 -77.269531 51.117188 -78.453125 49.609375 -78.453125 C 48.097656 -78.453125 46.519531 -77.578125 44.875 -75.828125 C 43.226562 -74.085938 41.601562 -71.828125 40 -69.046875 C 38.394531 -66.265625 36.835938 -63.15625 35.328125 -59.71875 C 33.828125 -56.28125 32.507812 -52.816406 31.375 -49.328125 C 30.25 -45.835938 29.332031 -42.515625 28.625 -39.359375 C 27.914062 -36.203125 27.5625 -33.632812 27.5625 -31.65625 C 27.5625 -28.644531 27.960938 -26.523438 28.765625 -25.296875 C 29.566406 -24.078125 30.625 -23.46875 31.9375 -23.46875 C 32.976562 -23.46875 34.15625 -23.863281 35.46875 -24.65625 C 36.789062 -25.457031 38.015625 -26.492188 39.140625 -27.765625 C 40.273438 -29.046875 41.3125 -30.484375 42.25 -32.078125 C 43.195312 -33.679688 43.859375 -35.285156 44.234375 -36.890625 Z M 60.359375 -30.390625 "/></g></g></g><g fill="#000000" fill-opacity="1"><g transform="translate(57.9917, 182.326142)"><g><path d="M 52.015625 -2.828125 C 49.660156 -2.453125 47.066406 -2.023438 44.234375 -1.546875 C 41.410156 -1.078125 38.867188 -0.65625 36.609375 -0.28125 C 36.984375 -3.394531 37.359375 -6.457031 37.734375 -9.46875 C 38.015625 -12.101562 38.273438 -14.738281 38.515625 -17.375 C 38.753906 -20.019531 38.96875 -22.285156 39.15625 -24.171875 L 26.859375 -24.171875 L 21.203125 -3.8125 C 19.128906 -3.53125 16.675781 -3.222656 13.84375 -2.890625 C 11.019531 -2.566406 8.382812 -2.265625 5.9375 -1.984375 C 2.914062 -1.597656 -0.0507812 -1.21875 -2.96875 -0.84375 C 0.800781 -13.375 4.523438 -25.71875 8.203125 -37.875 C 9.703125 -42.96875 11.273438 -48.289062 12.921875 -53.84375 C 14.578125 -59.40625 16.226562 -64.941406 17.875 -70.453125 C 19.53125 -75.972656 21.109375 -81.273438 22.609375 -86.359375 C 24.117188 -91.453125 25.441406 -96.117188 26.578125 -100.359375 C 32.984375 -100.828125 39.503906 -101.390625 46.140625 -102.046875 C 52.785156 -102.710938 59.265625 -103.609375 65.578125 -104.734375 C 65.296875 -101.722656 64.988281 -97.976562 64.65625 -93.5 C 64.332031 -89.019531 64.03125 -84.140625 63.75 -78.859375 C 63.46875 -73.585938 63.179688 -68.078125 62.890625 -62.328125 C 62.609375 -56.578125 62.328125 -50.925781 62.046875 -45.375 C 61.578125 -32.363281 61.0625 -18.554688 60.5 -3.953125 C 57.664062 -3.484375 54.835938 -3.109375 52.015625 -2.828125 Z M 30.25 -38.296875 C 30.625 -38.296875 31.304688 -38.320312 32.296875 -38.375 C 33.285156 -38.425781 34.320312 -38.472656 35.40625 -38.515625 C 36.488281 -38.566406 37.5 -38.613281 38.4375 -38.65625 C 39.382812 -38.707031 40.046875 -38.78125 40.421875 -38.875 C 40.421875 -39.4375 40.488281 -40.398438 40.625 -41.765625 C 40.769531 -43.128906 40.910156 -44.679688 41.046875 -46.421875 C 41.191406 -48.171875 41.359375 -50.082031 41.546875 -52.15625 C 41.742188 -54.226562 41.9375 -56.253906 42.125 -58.234375 C 42.5 -63.035156 42.96875 -68.21875 43.53125 -73.78125 L 44.375 -86.078125 L 42.265625 -85.9375 L 39.015625 -73.78125 Z M 30.25 -38.296875 "/></g></g></g><g fill="#000000" fill-opacity="1"><g transform="translate(119.193542, 182.326142)"><g><path d="M 0.703125 0.703125 C 3.535156 -12.859375 6.222656 -26.003906 8.765625 -38.734375 C 9.703125 -44.191406 10.710938 -49.84375 11.796875 -55.6875 C 12.878906 -61.53125 13.890625 -67.300781 14.828125 -73 C 15.773438 -78.707031 16.625 -84.175781 17.375 -89.40625 C 18.132812 -94.632812 18.703125 -99.367188 19.078125 -103.609375 C 20.304688 -103.515625 21.34375 -103.46875 22.1875 -103.46875 C 23.039062 -103.46875 24.03125 -103.46875 25.15625 -103.46875 C 26.476562 -103.46875 28.082031 -103.488281 29.96875 -103.53125 C 31.851562 -103.582031 33.738281 -103.65625 35.625 -103.75 C 37.507812 -103.84375 39.535156 -103.9375 41.703125 -104.03125 C 43.015625 -97.4375 44.191406 -91.078125 45.234375 -84.953125 C 46.265625 -79.578125 47.320312 -74.0625 48.40625 -68.40625 C 49.488281 -62.757812 50.457031 -57.957031 51.3125 -54 C 51.6875 -55.875 52.109375 -58.0625 52.578125 -60.5625 C 53.046875 -63.0625 53.5625 -65.675781 54.125 -68.40625 C 54.695312 -71.144531 55.238281 -73.898438 55.75 -76.671875 C 56.269531 -79.453125 56.816406 -82.210938 57.390625 -84.953125 C 58.703125 -91.078125 60.066406 -97.390625 61.484375 -103.890625 L 78.734375 -106.015625 C 75.523438 -91.585938 72.695312 -77.921875 70.25 -65.015625 C 69.113281 -59.453125 68.003906 -53.820312 66.921875 -48.125 C 65.835938 -42.425781 64.820312 -36.960938 63.875 -31.734375 C 62.9375 -26.503906 62.140625 -21.648438 61.484375 -17.171875 C 60.828125 -12.691406 60.3125 -8.945312 59.9375 -5.9375 C 59.644531 -5.9375 58.53125 -5.722656 56.59375 -5.296875 C 54.664062 -4.878906 52.453125 -4.382812 49.953125 -3.8125 C 47.460938 -3.25 44.96875 -2.679688 42.46875 -2.109375 C 39.976562 -1.546875 38.117188 -1.03125 36.890625 -0.5625 C 36.328125 -8.101562 35.710938 -15.265625 35.046875 -22.046875 C 34.765625 -24.972656 34.457031 -27.96875 34.125 -31.03125 C 33.800781 -34.09375 33.453125 -37.035156 33.078125 -39.859375 C 32.703125 -42.679688 32.320312 -45.316406 31.9375 -47.765625 C 31.5625 -50.222656 31.1875 -52.347656 30.8125 -54.140625 C 30.53125 -52.347656 30.148438 -50.269531 29.671875 -47.90625 C 29.203125 -45.550781 28.734375 -43.054688 28.265625 -40.421875 C 27.796875 -37.785156 27.328125 -35.03125 26.859375 -32.15625 C 26.390625 -29.28125 25.867188 -26.523438 25.296875 -23.890625 C 24.078125 -17.578125 22.757812 -10.976562 21.34375 -4.09375 Z M 0.703125 0.703125 "/></g></g></g><g fill="#000000" fill-opacity="1"><g transform="translate(183.080908, 182.326142)"><g><path d="M 60.359375 -30.390625 C 58.097656 -25.203125 55.578125 -20.703125 52.796875 -16.890625 C 50.015625 -13.078125 47.09375 -9.875 44.03125 -7.28125 C 40.96875 -4.6875 37.878906 -2.773438 34.765625 -1.546875 C 31.660156 -0.328125 28.644531 0.28125 25.71875 0.28125 C 22.800781 0.28125 20.140625 -0.375 17.734375 -1.6875 C 15.335938 -3.007812 13.242188 -4.988281 11.453125 -7.625 C 9.660156 -10.269531 8.222656 -13.523438 7.140625 -17.390625 C 6.054688 -21.253906 5.515625 -25.773438 5.515625 -30.953125 C 5.515625 -39.804688 6.738281 -48.546875 9.1875 -57.171875 C 11.632812 -65.796875 15.070312 -73.546875 19.5 -80.421875 C 23.9375 -87.304688 29.191406 -92.84375 35.265625 -97.03125 C 41.335938 -101.226562 48.050781 -103.328125 55.40625 -103.328125 C 57.664062 -103.328125 59.832031 -102.851562 61.90625 -101.90625 C 63.976562 -100.96875 65.769531 -99.648438 67.28125 -97.953125 C 68.789062 -96.253906 69.992188 -94.179688 70.890625 -91.734375 C 71.785156 -89.285156 72.234375 -86.550781 72.234375 -83.53125 C 72.234375 -82.96875 72.234375 -82.378906 72.234375 -81.765625 C 72.234375 -81.148438 72.179688 -80.515625 72.078125 -79.859375 L 53.5625 -74.90625 C 52.4375 -77.269531 51.117188 -78.453125 49.609375 -78.453125 C 48.097656 -78.453125 46.519531 -77.578125 44.875 -75.828125 C 43.226562 -74.085938 41.601562 -71.828125 40 -69.046875 C 38.394531 -66.265625 36.835938 -63.15625 35.328125 -59.71875 C 33.828125 -56.28125 32.507812 -52.816406 31.375 -49.328125 C 30.25 -45.835938 29.332031 -42.515625 28.625 -39.359375 C 27.914062 -36.203125 27.5625 -33.632812 27.5625 -31.65625 C 27.5625 -28.644531 27.960938 -26.523438 28.765625 -25.296875 C 29.566406 -24.078125 30.625 -23.46875 31.9375 -23.46875 C 32.976562 -23.46875 34.15625 -23.863281 35.46875 -24.65625 C 36.789062 -25.457031 38.015625 -26.492188 39.140625 -27.765625 C 40.273438 -29.046875 41.3125 -30.484375 42.25 -32.078125 C 43.195312 -33.679688 43.859375 -35.285156 44.234375 -36.890625 Z M 60.359375 -30.390625 "/></g></g></g><g fill="#000000" fill-opacity="1"><g transform="translate(241.597226, 182.326142)"><g><path d="M 1.125 0.28125 C 3.769531 -12.90625 6.316406 -25.765625 8.765625 -38.296875 C 9.703125 -43.671875 10.6875 -49.253906 11.71875 -55.046875 C 12.757812 -60.847656 13.726562 -66.570312 14.625 -72.21875 C 15.519531 -77.875 16.367188 -83.363281 17.171875 -88.6875 C 17.972656 -94.007812 18.609375 -98.84375 19.078125 -103.1875 C 21.242188 -103.09375 23.242188 -102.972656 25.078125 -102.828125 C 26.921875 -102.679688 28.738281 -102.5625 30.53125 -102.46875 C 32.320312 -102.375 34.132812 -102.300781 35.96875 -102.25 C 37.8125 -102.207031 39.816406 -102.1875 41.984375 -102.1875 C 40.378906 -95.5 38.796875 -88.804688 37.234375 -82.109375 C 35.679688 -75.421875 34.25 -68.6875 32.9375 -61.90625 L 46.921875 -63.46875 C 48.242188 -70.15625 49.421875 -76.628906 50.453125 -82.890625 C 51.492188 -89.160156 52.863281 -95.640625 54.5625 -102.328125 C 56.726562 -102.703125 59.128906 -103.007812 61.765625 -103.25 C 64.398438 -103.488281 66.847656 -103.703125 69.109375 -103.890625 C 71.378906 -104.078125 73.289062 -104.238281 74.84375 -104.375 C 76.394531 -104.519531 77.171875 -104.59375 77.171875 -104.59375 C 75.847656 -100.351562 74.597656 -95.710938 73.421875 -90.671875 C 72.242188 -85.628906 71.085938 -80.398438 69.953125 -74.984375 C 68.828125 -69.566406 67.742188 -64.078125 66.703125 -58.515625 C 65.671875 -52.953125 64.734375 -47.675781 63.890625 -42.6875 C 61.816406 -30.71875 59.882812 -18.46875 58.09375 -5.9375 L 36.046875 -3.390625 C 37.265625 -9.046875 38.347656 -14.554688 39.296875 -19.921875 C 40.234375 -24.453125 41.195312 -29.164062 42.1875 -34.0625 C 43.175781 -38.957031 43.953125 -43.148438 44.515625 -46.640625 L 30.8125 -45.375 C 30.15625 -41.789062 29.378906 -37.640625 28.484375 -32.921875 C 27.585938 -28.210938 26.757812 -23.738281 26 -19.5 C 24.96875 -14.414062 23.929688 -9.328125 22.890625 -4.234375 Z M 1.125 0.28125 "/></g></g></g><g fill="#000000" fill-opacity="1"><g transform="translate(303.929821, 182.326142)"><g><path d="M 52.015625 -2.828125 C 49.660156 -2.453125 47.066406 -2.023438 44.234375 -1.546875 C 41.410156 -1.078125 38.867188 -0.65625 36.609375 -0.28125 C 36.984375 -3.394531 37.359375 -6.457031 37.734375 -9.46875 C 38.015625 -12.101562 38.273438 -14.738281 38.515625 -17.375 C 38.753906 -20.019531 38.96875 -22.285156 39.15625 -24.171875 L 26.859375 -24.171875 L 21.203125 -3.8125 C 19.128906 -3.53125 16.675781 -3.222656 13.84375 -2.890625 C 11.019531 -2.566406 8.382812 -2.265625 5.9375 -1.984375 C 2.914062 -1.597656 -0.0507812 -1.21875 -2.96875 -0.84375 C 0.800781 -13.375 4.523438 -25.71875 8.203125 -37.875 C 9.703125 -42.96875 11.273438 -48.289062 12.921875 -53.84375 C 14.578125 -59.40625 16.226562 -64.941406 17.875 -70.453125 C 19.53125 -75.972656 21.109375 -81.273438 22.609375 -86.359375 C 24.117188 -91.453125 25.441406 -96.117188 26.578125 -100.359375 C 32.984375 -100.828125 39.503906 -101.390625 46.140625 -102.046875 C 52.785156 -102.710938 59.265625 -103.609375 65.578125 -104.734375 C 65.296875 -101.722656 64.988281 -97.976562 64.65625 -93.5 C 64.332031 -89.019531 64.03125 -84.140625 63.75 -78.859375 C 63.46875 -73.585938 63.179688 -68.078125 62.890625 -62.328125 C 62.609375 -56.578125 62.328125 -50.925781 62.046875 -45.375 C 61.578125 -32.363281 61.0625 -18.554688 60.5 -3.953125 C 57.664062 -3.484375 54.835938 -3.109375 52.015625 -2.828125 Z M 30.25 -38.296875 C 30.625 -38.296875 31.304688 -38.320312 32.296875 -38.375 C 33.285156 -38.425781 34.320312 -38.472656 35.40625 -38.515625 C 36.488281 -38.566406 37.5 -38.613281 38.4375 -38.65625 C 39.382812 -38.707031 40.046875 -38.78125 40.421875 -38.875 C 40.421875 -39.4375 40.488281 -40.398438 40.625 -41.765625 C 40.769531 -43.128906 40.910156 -44.679688 41.046875 -46.421875 C 41.191406 -48.171875 41.359375 -50.082031 41.546875 -52.15625 C 41.742188 -54.226562 41.9375 -56.253906 42.125 -58.234375 C 42.5 -63.035156 42.96875 -68.21875 43.53125 -73.78125 L 44.375 -86.078125 L 42.265625 -85.9375 L 39.015625 -73.78125 Z M 30.25 -38.296875 "/></g></g></g><g fill="#7ed957" fill-opacity="1"><g transform="translate(77.855044, 273.291814)"><g><path d="M 0.953125 0.125 L 16.46875 -84.09375 L 53.890625 -87.28125 C 53.335938 -85.550781 52.863281 -83.773438 52.46875 -81.953125 C 52.070312 -80.453125 51.695312 -78.894531 51.34375 -77.28125 C 50.988281 -75.664062 50.691406 -74.222656 50.453125 -72.953125 C 49.660156 -72.878906 48.535156 -72.820312 47.078125 -72.78125 C 45.617188 -72.738281 44.054688 -72.695312 42.390625 -72.65625 C 40.734375 -72.625 39.054688 -72.609375 37.359375 -72.609375 C 35.671875 -72.609375 34.191406 -72.609375 32.921875 -72.609375 L 28.78125 -51.40625 C 31.226562 -51.5625 33.519531 -51.675781 35.65625 -51.75 C 37.382812 -51.832031 39.15625 -51.875 40.96875 -51.875 C 42.789062 -51.875 44.132812 -51.914062 45 -52 C 44.6875 -49.78125 44.390625 -47.601562 44.109375 -45.46875 C 43.835938 -43.34375 43.503906 -41.175781 43.109375 -38.96875 C 42.316406 -38.882812 41.03125 -38.820312 39.25 -38.78125 C 37.476562 -38.75 35.6875 -38.691406 33.875 -38.609375 C 31.820312 -38.535156 29.570312 -38.457031 27.125 -38.375 L 23.09375 -16.578125 L 40.390625 -19.3125 L 39.203125 -5.796875 Z M 0.953125 0.125 "/></g></g></g><g fill="#7ed957" fill-opacity="1"><g transform="translate(118.24146, 273.291814)"><g><path d="M 43.578125 -2.375 C 41.609375 -2.050781 39.4375 -1.691406 37.0625 -1.296875 C 34.695312 -0.898438 32.566406 -0.546875 30.671875 -0.234375 C 30.992188 -2.835938 31.3125 -5.40625 31.625 -7.9375 C 31.863281 -10.144531 32.082031 -12.351562 32.28125 -14.5625 C 32.476562 -16.78125 32.65625 -18.675781 32.8125 -20.25 L 22.5 -20.25 L 17.765625 -3.203125 C 16.023438 -2.960938 13.96875 -2.703125 11.59375 -2.421875 C 9.226562 -2.148438 7.019531 -1.894531 4.96875 -1.65625 C 2.445312 -1.34375 -0.0351562 -1.023438 -2.484375 -0.703125 C 0.671875 -11.210938 3.789062 -21.554688 6.875 -31.734375 C 8.132812 -36.003906 9.453125 -40.46875 10.828125 -45.125 C 12.210938 -49.78125 13.597656 -54.414062 14.984375 -59.03125 C 16.367188 -63.65625 17.691406 -68.097656 18.953125 -72.359375 C 20.210938 -76.628906 21.316406 -80.539062 22.265625 -84.09375 C 27.628906 -84.488281 33.09375 -84.960938 38.65625 -85.515625 C 44.226562 -86.066406 49.660156 -86.816406 54.953125 -87.765625 C 54.710938 -85.234375 54.453125 -82.09375 54.171875 -78.34375 C 53.898438 -74.59375 53.644531 -70.503906 53.40625 -66.078125 C 53.175781 -61.660156 52.941406 -57.039062 52.703125 -52.21875 C 52.460938 -47.40625 52.226562 -42.671875 52 -38.015625 C 51.601562 -27.117188 51.164062 -15.550781 50.6875 -3.3125 C 48.320312 -2.914062 45.953125 -2.601562 43.578125 -2.375 Z M 25.34375 -32.09375 C 25.65625 -32.09375 26.226562 -32.113281 27.0625 -32.15625 C 27.894531 -32.195312 28.765625 -32.234375 29.671875 -32.265625 C 30.578125 -32.304688 31.425781 -32.347656 32.21875 -32.390625 C 33.007812 -32.429688 33.5625 -32.492188 33.875 -32.578125 C 33.875 -33.046875 33.929688 -33.851562 34.046875 -35 C 34.171875 -36.144531 34.289062 -37.445312 34.40625 -38.90625 C 34.519531 -40.363281 34.65625 -41.960938 34.8125 -43.703125 C 34.976562 -45.441406 35.140625 -47.140625 35.296875 -48.796875 C 35.609375 -52.828125 36.003906 -57.171875 36.484375 -61.828125 L 37.1875 -72.125 L 35.40625 -72.015625 L 32.6875 -61.828125 Z M 25.34375 -32.09375 "/></g></g></g><g fill="#7ed957" fill-opacity="1"><g transform="translate(169.523898, 273.291814)"><g><path d="M 52.46875 -29.25 C 52.46875 -24.832031 51.617188 -20.828125 49.921875 -17.234375 C 48.222656 -13.640625 45.929688 -10.539062 43.046875 -7.9375 C 40.171875 -5.332031 36.773438 -3.316406 32.859375 -1.890625 C 28.953125 -0.472656 24.75 0.234375 20.25 0.234375 C 17.09375 0.234375 13.9375 -0.613281 10.78125 -2.3125 C 7.625 -4.007812 4.582031 -6.710938 1.65625 -10.421875 L 10.421875 -27.59375 C 10.972656 -26.570312 11.800781 -25.523438 12.90625 -24.453125 C 14.007812 -23.390625 15.253906 -22.460938 16.640625 -21.671875 C 18.023438 -20.878906 19.40625 -20.226562 20.78125 -19.71875 C 22.164062 -19.207031 23.410156 -18.953125 24.515625 -18.953125 C 25.460938 -18.953125 26.445312 -19.109375 27.46875 -19.421875 C 28.5 -19.734375 29.445312 -20.207031 30.3125 -20.84375 C 31.1875 -21.476562 31.878906 -22.207031 32.390625 -23.03125 C 32.898438 -23.863281 33.15625 -24.832031 33.15625 -25.9375 C 33.15625 -27.832031 32.539062 -29.585938 31.3125 -31.203125 C 30.09375 -32.828125 28.578125 -34.367188 26.765625 -35.828125 C 24.953125 -37.285156 22.976562 -38.765625 20.84375 -40.265625 C 18.707031 -41.765625 16.75 -43.34375 14.96875 -45 C 13.195312 -46.664062 11.679688 -48.523438 10.421875 -50.578125 C 9.160156 -52.628906 8.53125 -54.914062 8.53125 -57.4375 C 8.53125 -61.539062 9.753906 -65.367188 12.203125 -68.921875 C 14.648438 -72.484375 17.707031 -75.546875 21.375 -78.109375 C 25.050781 -80.671875 29.054688 -82.703125 33.390625 -84.203125 C 37.734375 -85.703125 41.84375 -86.453125 45.71875 -86.453125 C 47.851562 -86.453125 49.863281 -86.195312 51.75 -85.6875 C 53.644531 -85.175781 55.285156 -84.347656 56.671875 -83.203125 C 58.054688 -82.054688 59.160156 -80.613281 59.984375 -78.875 C 60.816406 -77.144531 61.234375 -74.972656 61.234375 -72.359375 C 61.234375 -71.253906 61.132812 -70.148438 60.9375 -69.046875 C 60.738281 -67.941406 60.5625 -66.757812 60.40625 -65.5 L 43.234375 -60.515625 C 43.390625 -61.148438 43.523438 -61.78125 43.640625 -62.40625 C 43.765625 -63.039062 43.828125 -63.675781 43.828125 -64.3125 C 43.828125 -66.675781 43.410156 -68.390625 42.578125 -69.453125 C 41.742188 -70.523438 40.660156 -71.0625 39.328125 -71.0625 C 38.691406 -71.0625 37.921875 -70.820312 37.015625 -70.34375 C 36.109375 -69.875 35.195312 -69.265625 34.28125 -68.515625 C 33.375 -67.765625 32.601562 -66.875 31.96875 -65.84375 C 31.34375 -64.820312 31.03125 -63.71875 31.03125 -62.53125 C 31.03125 -60.632812 31.5625 -59.054688 32.625 -57.796875 C 33.695312 -56.535156 35.019531 -55.351562 36.59375 -54.25 C 38.175781 -53.144531 39.894531 -52.019531 41.75 -50.875 C 43.601562 -49.726562 45.316406 -48.242188 46.890625 -46.421875 C 48.472656 -44.609375 49.796875 -42.335938 50.859375 -39.609375 C 51.929688 -36.890625 52.46875 -33.4375 52.46875 -29.25 Z M 52.46875 -29.25 "/></g></g></g><g fill="#7ed957" fill-opacity="1"><g transform="translate(220.451053, 273.291814)"><g><path d="M 9.125 -1.78125 L 14.5625 -25.578125 C 14.5625 -28.972656 14.503906 -32.664062 14.390625 -36.65625 C 14.273438 -40.644531 14.097656 -44.648438 13.859375 -48.671875 C 13.617188 -52.703125 13.378906 -56.59375 13.140625 -60.34375 C 12.910156 -64.09375 12.710938 -67.40625 12.546875 -70.28125 C 12.390625 -73.164062 12.234375 -75.476562 12.078125 -77.21875 C 11.921875 -78.957031 11.84375 -79.828125 11.84375 -79.828125 L 31.15625 -87.171875 L 31.15625 -72.71875 C 31.15625 -70.75 31.15625 -68.734375 31.15625 -66.671875 C 31.15625 -64.617188 31.132812 -62.601562 31.09375 -60.625 C 31.050781 -58.65625 31.03125 -56.800781 31.03125 -55.0625 C 31.03125 -53.332031 31.03125 -51.875 31.03125 -50.6875 C 32.0625 -53.375 33.304688 -56.691406 34.765625 -60.640625 C 36.222656 -64.585938 37.582031 -68.414062 38.84375 -72.125 C 40.34375 -76.46875 41.882812 -81.050781 43.46875 -85.875 L 61.828125 -81.71875 C 58.429688 -74.925781 55.113281 -68.175781 51.875 -61.46875 C 50.53125 -58.550781 49.109375 -55.53125 47.609375 -52.40625 C 46.109375 -49.289062 44.609375 -46.171875 43.109375 -43.046875 C 41.609375 -39.929688 40.144531 -36.910156 38.71875 -33.984375 C 37.300781 -31.066406 36.003906 -28.34375 34.828125 -25.8125 C 34.429688 -23.757812 33.9375 -21.507812 33.34375 -19.0625 C 32.75 -16.613281 32.175781 -14.285156 31.625 -12.078125 C 30.914062 -9.472656 30.164062 -6.867188 29.375 -4.265625 Z M 9.125 -1.78125 "/></g></g></g><g fill="#7ed957" fill-opacity="1"><g transform="translate(265.930176, 273.291814)"><g><path d="M 23.921875 -28.0625 C 21.628906 -28.0625 19.335938 -27.984375 17.046875 -27.828125 C 14.765625 -27.671875 12.476562 -27.515625 10.1875 -27.359375 C 12.632812 -37.066406 15.019531 -46.738281 17.34375 -56.375 C 19.675781 -66.007812 22.109375 -75.679688 24.640625 -85.390625 C 26.140625 -85.628906 27.851562 -85.863281 29.78125 -86.09375 C 31.71875 -86.332031 33.671875 -86.609375 35.640625 -86.921875 C 37.617188 -87.242188 39.535156 -87.523438 41.390625 -87.765625 C 43.242188 -88.003906 44.804688 -88.238281 46.078125 -88.46875 C 41.804688 -78.519531 37.914062 -68.507812 34.40625 -58.4375 C 30.894531 -48.375 27.398438 -38.25 23.921875 -28.0625 Z M 25.109375 -9.46875 C 25.109375 -7.96875 24.769531 -6.46875 24.09375 -4.96875 C 23.425781 -3.46875 22.460938 -2.144531 21.203125 -1 C 19.941406 0.132812 18.363281 1.035156 16.46875 1.703125 C 14.570312 2.378906 12.398438 2.71875 9.953125 2.71875 C 8.296875 2.71875 6.796875 2.398438 5.453125 1.765625 C 4.109375 1.140625 3.019531 0.296875 2.1875 -0.765625 C 1.363281 -1.835938 0.710938 -3.039062 0.234375 -4.375 C -0.234375 -5.71875 -0.46875 -7.0625 -0.46875 -8.40625 C -0.46875 -9.90625 -0.234375 -11.347656 0.234375 -12.734375 C 0.710938 -14.117188 1.441406 -15.34375 2.421875 -16.40625 C 3.410156 -17.46875 4.632812 -18.351562 6.09375 -19.0625 C 7.5625 -19.78125 9.320312 -20.140625 11.375 -20.140625 C 15.945312 -20.140625 19.378906 -19.050781 21.671875 -16.875 C 23.960938 -14.707031 25.109375 -12.238281 25.109375 -9.46875 Z M 25.109375 -9.46875 "/></g></g></g></svg>