<svg width="487" height="268" viewBox="0 0 487 268" fill="none" xmlns="http://www.w3.org/2000/svg">
<path d="M73.7798 101.581C70.7642 108.497 67.4048 114.497 63.6965 119.581C59.9881 124.664 56.0923 128.935 52.009 132.393C47.9256 135.852 43.8058 138.404 39.6548 140.039C35.5142 141.664 31.4933 142.477 27.5923 142.477C23.7017 142.477 20.1548 141.602 16.9465 139.852C13.7485 138.091 10.9569 135.45 8.57145 131.935C6.18083 128.409 4.26416 124.07 2.82145 118.914C1.37354 113.763 0.654785 107.737 0.654785 100.831C0.654785 89.0286 2.28499 77.3724 5.55062 65.8724C8.81103 54.3724 13.3944 44.039 19.3006 34.8724C25.2173 25.6953 32.2225 18.3099 40.3215 12.7265C48.4152 7.13277 57.3683 4.33069 67.1756 4.33069C70.186 4.33069 73.0767 4.96611 75.8423 6.22652C78.6027 7.47652 80.9933 9.23694 83.009 11.4974C85.0194 13.763 86.6235 16.5286 87.8215 19.789C89.0142 23.0546 89.6131 26.7005 89.6131 30.7265C89.6131 31.4765 89.6131 32.263 89.6131 33.0807C89.6131 33.9036 89.5402 34.7474 89.4048 35.6224L64.7173 42.2265C63.2173 39.0755 61.4569 37.4974 59.4465 37.4974C57.4308 37.4974 55.3267 38.664 53.134 40.9974C50.936 43.3203 48.7694 46.3307 46.634 50.039C44.4933 53.7474 42.4152 57.8932 40.4048 62.4765C38.4048 67.0599 36.6444 71.6796 35.134 76.3307C33.634 80.9869 32.41 85.414 31.4673 89.6224C30.5194 93.8307 30.0506 97.2578 30.0506 99.8932C30.0506 103.909 30.5819 106.737 31.6548 108.372C32.7225 109.997 34.134 110.81 35.884 110.81C37.2694 110.81 38.8423 110.284 40.5923 109.227C42.3527 108.159 43.9881 106.779 45.4881 105.081C46.9985 103.372 48.384 101.456 49.634 99.3307C50.8944 97.1953 51.7798 95.0546 52.2798 92.914L73.7798 101.581Z" fill="black"/>
<path d="M140.677 138.331C137.536 138.831 134.078 139.404 130.302 140.039C126.536 140.664 123.145 141.227 120.135 141.727C120.635 137.575 121.135 133.492 121.635 129.477C122.01 125.966 122.354 122.45 122.677 118.935C122.994 115.409 123.281 112.388 123.531 109.872H107.135L99.5932 137.018C96.8276 137.393 93.5567 137.805 89.7807 138.247C86.0151 138.68 82.4994 139.081 79.239 139.456C75.2078 139.971 71.2546 140.477 67.364 140.977C72.3901 124.268 77.3536 107.81 82.2598 91.6015C84.2598 84.8099 86.3536 77.7161 88.5515 70.3099C90.7598 62.8932 92.9578 55.513 95.1557 48.164C97.364 40.8046 99.4682 33.7369 101.468 26.9557C103.479 20.164 105.244 13.9453 106.76 8.28902C115.302 7.66402 123.994 6.91402 132.843 6.03902C141.703 5.1536 150.343 3.95569 158.76 2.45569C158.385 6.47131 157.973 11.4661 157.531 17.4349C157.098 23.4088 156.697 29.914 156.322 36.9557C155.947 43.9869 155.562 51.3307 155.177 58.9974C154.802 66.664 154.427 74.2005 154.052 81.6015C153.427 98.9505 152.739 117.362 151.989 136.831C148.208 137.456 144.437 137.956 140.677 138.331ZM111.656 91.039C112.156 91.039 113.062 91.0078 114.385 90.9349C115.703 90.8671 117.083 90.8046 118.531 90.7474C119.973 90.6796 121.322 90.6171 122.572 90.5599C123.833 90.4921 124.718 90.3932 125.218 90.2682C125.218 89.5182 125.307 88.2369 125.489 86.414C125.682 84.5963 125.869 82.5286 126.052 80.2057C126.244 77.8724 126.468 75.3255 126.718 72.5599C126.979 69.7994 127.239 67.0963 127.489 64.4557C127.989 58.0546 128.614 51.1432 129.364 43.7265L130.489 27.3307L127.677 27.5182L123.343 43.7265L111.656 91.039Z" fill="black"/>
<path d="M153.862 143.039C157.638 124.956 161.222 107.43 164.612 90.4557C165.862 83.1797 167.206 75.6432 168.654 67.8515C170.097 60.0599 171.446 52.3672 172.696 44.7682C173.956 37.1588 175.091 29.8672 176.091 22.8932C177.102 15.9245 177.862 9.61196 178.362 3.95571C179.998 4.08071 181.383 4.14321 182.508 4.14321C183.644 4.14321 184.966 4.14321 186.466 4.14321C188.227 4.14321 190.368 4.11717 192.883 4.05988C195.394 3.99217 197.909 3.89321 200.425 3.76821C202.935 3.64321 205.638 3.51821 208.529 3.39321C210.279 12.1849 211.847 20.664 213.237 28.8307C214.612 35.9974 216.019 43.3515 217.466 50.8932C218.909 58.4245 220.201 64.8255 221.341 70.1015C221.841 67.6015 222.404 64.6849 223.029 61.3515C223.654 58.0182 224.341 54.5338 225.091 50.8932C225.852 47.2422 226.576 43.5703 227.258 39.8724C227.951 36.164 228.68 32.487 229.446 28.8307C231.196 20.664 233.013 12.2474 234.904 3.58071L257.904 0.747375C253.623 19.987 249.852 38.2057 246.591 55.414C245.076 62.8307 243.597 70.3411 242.154 77.9349C240.706 85.5338 239.352 92.8203 238.091 99.789C236.841 106.763 235.779 113.237 234.904 119.206C234.029 125.18 233.341 130.174 232.841 134.185C232.451 134.185 230.966 134.471 228.383 135.039C225.81 135.596 222.862 136.258 219.529 137.018C216.206 137.768 212.883 138.529 209.55 139.289C206.227 140.039 203.748 140.727 202.112 141.352C201.362 131.299 200.539 121.747 199.654 112.706C199.279 108.805 198.868 104.81 198.425 100.727C197.993 96.6432 197.529 92.7213 197.029 88.9557C196.529 85.1953 196.019 81.6797 195.508 78.414C195.008 75.138 194.508 72.3047 194.008 69.914C193.633 72.3047 193.123 75.0755 192.487 78.2265C191.862 81.3672 191.237 84.6953 190.612 88.2057C189.987 91.7213 189.362 95.3932 188.737 99.2265C188.112 103.06 187.414 106.737 186.654 110.247C185.029 118.664 183.269 127.466 181.383 136.643L153.862 143.039Z" fill="black"/>
<path d="M318.587 101.581C315.571 108.497 312.212 114.497 308.504 119.581C304.795 124.664 300.899 128.935 296.816 132.393C292.733 135.852 288.613 138.404 284.462 140.039C280.321 141.664 276.3 142.477 272.399 142.477C268.509 142.477 264.962 141.602 261.754 139.852C258.556 138.091 255.764 135.45 253.379 131.935C250.988 128.409 249.071 124.07 247.629 118.914C246.181 113.763 245.462 107.737 245.462 100.831C245.462 89.0286 247.092 77.3724 250.358 65.8724C253.618 54.3724 258.201 44.039 264.108 34.8724C270.024 25.6953 277.03 18.3099 285.129 12.7265C293.222 7.13277 302.175 4.33069 311.983 4.33069C314.993 4.33069 317.884 4.96611 320.649 6.22652C323.41 7.47652 325.8 9.23694 327.816 11.4974C329.826 13.763 331.431 16.5286 332.629 19.789C333.821 23.0546 334.42 26.7005 334.42 30.7265C334.42 31.4765 334.42 32.263 334.42 33.0807C334.42 33.9036 334.347 34.7474 334.212 35.6224L309.524 42.2265C308.024 39.0755 306.264 37.4974 304.254 37.4974C302.238 37.4974 300.134 38.664 297.941 40.9974C295.743 43.3203 293.576 46.3307 291.441 50.039C289.3 53.7474 287.222 57.8932 285.212 62.4765C283.212 67.0599 281.451 71.6796 279.941 76.3307C278.441 80.9869 277.217 85.414 276.274 89.6224C275.326 93.8307 274.858 97.2578 274.858 99.8932C274.858 103.909 275.389 106.737 276.462 108.372C277.53 109.997 278.941 110.81 280.691 110.81C282.076 110.81 283.649 110.284 285.399 109.227C287.16 108.159 288.795 106.779 290.295 105.081C291.806 103.372 293.191 101.456 294.441 99.3307C295.701 97.1953 296.587 95.0546 297.087 92.914L318.587 101.581Z" fill="black"/>
<path d="M317.63 142.477C321.156 124.893 324.552 107.747 327.817 91.039C329.067 83.8724 330.38 76.4296 331.755 68.7057C333.14 60.9713 334.432 53.3411 335.63 45.8099C336.822 38.2682 337.953 30.9505 339.025 23.8515C340.093 16.7578 340.942 10.3099 341.567 4.51819C344.453 4.64319 347.119 4.80465 349.567 4.99736C352.025 5.19527 354.447 5.35152 356.838 5.47652C359.223 5.60152 361.64 5.70048 364.088 5.76819C366.546 5.82548 369.218 5.85152 372.109 5.85152C369.968 14.7682 367.859 23.6953 365.775 32.6224C363.703 41.539 361.796 50.5182 360.046 59.5599L378.692 57.4765C380.453 48.5599 382.025 39.9296 383.4 31.5807C384.786 23.2213 386.614 14.5807 388.88 5.66402C391.765 5.16402 394.968 4.75777 398.484 4.43486C401.994 4.11715 405.26 3.83069 408.275 3.58069C411.302 3.33069 413.848 3.11715 415.921 2.93486C417.989 2.74215 419.025 2.64319 419.025 2.64319C417.26 8.29944 415.593 14.4869 414.025 21.2057C412.453 27.9296 410.911 34.9036 409.4 42.1224C407.9 49.3463 406.453 56.664 405.067 64.0807C403.692 71.4974 402.442 78.5338 401.317 85.1849C398.552 101.143 395.973 117.477 393.588 134.185L364.192 137.581C365.817 130.039 367.26 122.695 368.525 115.539C369.775 109.497 371.057 103.216 372.38 96.6849C373.697 90.1588 374.734 84.5703 375.484 79.914L357.213 81.6015C356.338 86.3828 355.302 91.914 354.109 98.2057C352.911 104.487 351.807 110.45 350.796 116.102C349.421 122.883 348.036 129.664 346.65 136.456L317.63 142.477Z" fill="black"/>
<path d="M468.594 138.331C465.453 138.831 461.995 139.404 458.219 140.039C454.453 140.664 451.063 141.227 448.052 141.727C448.552 137.575 449.052 133.492 449.552 129.477C449.927 125.966 450.271 122.45 450.594 118.935C450.912 115.409 451.198 112.388 451.448 109.872H435.052L427.511 137.018C424.745 137.393 421.474 137.805 417.698 138.247C413.933 138.68 410.417 139.081 407.156 139.456C403.125 139.971 399.172 140.477 395.281 140.977C400.308 124.268 405.271 107.81 410.177 91.6015C412.177 84.8099 414.271 77.7161 416.469 70.3099C418.677 62.8932 420.875 55.513 423.073 48.164C425.281 40.8046 427.386 33.7369 429.386 26.9557C431.396 20.164 433.162 13.9453 434.677 8.28902C443.219 7.66402 451.912 6.91402 460.761 6.03902C469.62 5.1536 478.261 3.95569 486.677 2.45569C486.302 6.47131 485.891 11.4661 485.448 17.4349C485.016 23.4088 484.615 29.914 484.24 36.9557C483.865 43.9869 483.479 51.3307 483.094 58.9974C482.719 66.664 482.344 74.2005 481.969 81.6015C481.344 98.9505 480.656 117.362 479.906 136.831C476.125 137.456 472.354 137.956 468.594 138.331ZM439.573 91.039C440.073 91.039 440.979 91.0078 442.302 90.9349C443.62 90.8671 445 90.8046 446.448 90.7474C447.891 90.6796 449.24 90.6171 450.49 90.5599C451.75 90.4921 452.636 90.3932 453.136 90.2682C453.136 89.5182 453.224 88.2369 453.406 86.414C453.599 84.5963 453.787 82.5286 453.969 80.2057C454.162 77.8724 454.386 75.3255 454.636 72.5599C454.896 69.7994 455.156 67.0963 455.406 64.4557C455.906 58.0546 456.531 51.1432 457.281 43.7265L458.406 27.3307L455.594 27.5182L451.261 43.7265L439.573 91.039Z" fill="black"/>
<path d="M99.0776 263.556L119.765 151.264L169.661 147.014C168.921 149.321 168.291 151.691 167.765 154.118C167.234 156.118 166.734 158.196 166.265 160.347C165.791 162.504 165.395 164.426 165.078 166.118C164.02 166.217 162.52 166.295 160.578 166.347C158.63 166.405 156.546 166.462 154.328 166.514C152.119 166.556 149.88 166.577 147.619 166.577C145.369 166.577 143.395 166.577 141.703 166.577L136.182 194.847C139.442 194.639 142.5 194.488 145.348 194.389C147.651 194.28 150.015 194.222 152.432 194.222C154.859 194.222 156.651 194.17 157.807 194.056C157.39 197.014 156.994 199.92 156.619 202.764C156.255 205.597 155.812 208.488 155.286 211.431C154.229 211.545 152.515 211.629 150.14 211.681C147.776 211.722 145.39 211.801 142.973 211.91C140.234 212.009 137.234 212.113 133.973 212.222L128.598 241.285L151.661 237.639L150.078 255.66L99.0776 263.556Z" fill="#7ED957"/>
<path d="M209.759 260.222C207.134 260.655 204.239 261.134 201.072 261.66C197.916 262.191 195.077 262.66 192.551 263.077C192.978 259.608 193.405 256.181 193.822 252.806C194.14 249.863 194.431 246.92 194.697 243.972C194.957 241.014 195.197 238.488 195.405 236.389H181.655L175.343 259.118C173.02 259.441 170.28 259.785 167.114 260.16C163.957 260.525 161.015 260.863 158.28 261.181C154.916 261.597 151.608 262.025 148.343 262.452C152.551 248.441 156.707 234.65 160.822 221.077C162.499 215.384 164.259 209.431 166.093 203.222C167.937 197.014 169.785 190.837 171.634 184.681C173.478 178.514 175.244 172.592 176.926 166.91C178.603 161.217 180.077 156.004 181.343 151.264C188.494 150.738 195.78 150.108 203.197 149.368C210.624 148.634 217.869 147.634 224.926 146.368C224.603 149.743 224.259 153.931 223.884 158.931C223.52 163.931 223.181 169.384 222.864 175.285C222.556 181.176 222.244 187.337 221.926 193.764C221.603 200.181 221.291 206.493 220.989 212.702C220.457 227.233 219.874 242.655 219.239 258.972C216.082 259.504 212.926 259.92 209.759 260.222ZM185.447 220.597C185.864 220.597 186.624 220.571 187.739 220.514C188.848 220.462 190.009 220.41 191.218 220.368C192.426 220.316 193.556 220.259 194.614 220.202C195.666 220.15 196.405 220.066 196.822 219.952C196.822 219.327 196.895 218.254 197.051 216.722C197.218 215.196 197.374 213.462 197.53 211.514C197.681 209.571 197.864 207.441 198.072 205.118C198.291 202.801 198.509 200.535 198.718 198.327C199.134 192.952 199.66 187.16 200.301 180.952L201.239 167.222L198.864 167.368L195.239 180.952L185.447 220.597Z" fill="#7ED957"/>
<path d="M289.99 224.389C289.99 230.28 288.855 235.618 286.594 240.41C284.329 245.202 281.271 249.337 277.428 252.806C273.594 256.28 269.063 258.967 263.844 260.868C258.636 262.759 253.032 263.702 247.032 263.702C242.824 263.702 238.615 262.571 234.407 260.306C230.199 258.045 226.141 254.441 222.24 249.493L233.928 226.597C234.662 227.962 235.766 229.358 237.24 230.785C238.709 232.202 240.37 233.441 242.219 234.493C244.063 235.551 245.907 236.42 247.74 237.097C249.584 237.78 251.245 238.118 252.719 238.118C253.98 238.118 255.292 237.91 256.657 237.493C258.032 237.077 259.292 236.446 260.449 235.597C261.615 234.754 262.537 233.78 263.219 232.681C263.896 231.571 264.24 230.28 264.24 228.806C264.24 226.28 263.417 223.941 261.782 221.785C260.157 219.618 258.136 217.566 255.719 215.618C253.303 213.676 250.667 211.702 247.824 209.702C244.975 207.702 242.365 205.597 239.99 203.389C237.626 201.17 235.605 198.691 233.928 195.952C232.245 193.217 231.407 190.17 231.407 186.806C231.407 181.337 233.037 176.233 236.303 171.493C239.563 166.743 243.641 162.66 248.532 159.243C253.433 155.827 258.771 153.118 264.553 151.118C270.344 149.118 275.824 148.118 280.99 148.118C283.834 148.118 286.516 148.462 289.032 149.139C291.558 149.821 293.745 150.926 295.594 152.452C297.438 153.983 298.912 155.905 300.011 158.222C301.12 160.53 301.678 163.426 301.678 166.91C301.678 168.384 301.542 169.858 301.282 171.327C301.016 172.801 300.782 174.379 300.574 176.056L277.678 182.702C277.886 181.858 278.063 181.014 278.219 180.181C278.386 179.337 278.469 178.488 278.469 177.639C278.469 174.488 277.912 172.202 276.803 170.785C275.688 169.358 274.245 168.639 272.469 168.639C271.62 168.639 270.594 168.962 269.386 169.597C268.178 170.222 266.959 171.035 265.74 172.035C264.532 173.035 263.501 174.222 262.657 175.597C261.824 176.962 261.407 178.431 261.407 180.014C261.407 182.545 262.115 184.65 263.532 186.327C264.959 188.009 266.725 189.587 268.824 191.056C270.933 192.53 273.225 194.03 275.699 195.556C278.167 197.087 280.454 199.066 282.553 201.493C284.662 203.91 286.428 206.941 287.844 210.577C289.271 214.202 289.99 218.806 289.99 224.389Z" fill="#7ED957"/>
<path d="M300.101 261.014L307.351 229.285C307.351 224.759 307.273 219.837 307.122 214.514C306.966 209.196 306.732 203.858 306.414 198.493C306.091 193.118 305.773 187.931 305.455 182.931C305.148 177.931 304.883 173.514 304.664 169.681C304.455 165.837 304.247 162.754 304.039 160.431C303.83 158.113 303.726 156.952 303.726 156.952L329.476 147.16V166.431C329.476 169.056 329.476 171.743 329.476 174.493C329.476 177.233 329.445 179.92 329.393 182.556C329.336 185.181 329.31 187.655 329.31 189.972C329.31 192.28 329.31 194.222 329.31 195.806C330.685 192.222 332.341 187.801 334.289 182.535C336.232 177.274 338.044 172.17 339.726 167.222C341.726 161.431 343.778 155.321 345.893 148.889L370.372 154.431C365.841 163.488 361.419 172.488 357.101 181.431C355.31 185.321 353.414 189.347 351.414 193.514C349.414 197.67 347.414 201.827 345.414 205.993C343.414 210.149 341.461 214.176 339.56 218.077C337.669 221.967 335.94 225.597 334.372 228.972C333.841 231.712 333.185 234.712 332.393 237.972C331.601 241.238 330.836 244.342 330.101 247.285C329.153 250.759 328.153 254.233 327.101 257.702L300.101 261.014Z" fill="#7ED957"/>
<path d="M380.469 225.972C377.412 225.972 374.355 226.077 371.303 226.285C368.261 226.493 365.209 226.702 362.157 226.91C365.417 213.967 368.6 201.071 371.698 188.222C374.808 175.379 378.053 162.483 381.428 149.535C383.428 149.217 385.709 148.905 388.282 148.597C390.865 148.28 393.469 147.91 396.094 147.493C398.73 147.066 401.287 146.691 403.761 146.368C406.23 146.051 408.313 145.738 410.011 145.431C404.313 158.696 399.126 172.045 394.448 185.472C389.766 198.889 385.105 212.389 380.469 225.972ZM382.053 250.764C382.053 252.764 381.6 254.764 380.698 256.764C379.808 258.764 378.521 260.53 376.844 262.056C375.162 263.566 373.058 264.769 370.532 265.66C368.001 266.561 365.105 267.014 361.844 267.014C359.636 267.014 357.636 266.587 355.844 265.743C354.053 264.91 352.6 263.785 351.49 262.368C350.391 260.941 349.521 259.337 348.886 257.556C348.261 255.764 347.948 253.972 347.948 252.181C347.948 250.181 348.261 248.259 348.886 246.41C349.521 244.566 350.495 242.931 351.803 241.514C353.12 240.097 354.751 238.92 356.698 237.972C358.657 237.014 361.001 236.535 363.74 236.535C369.834 236.535 374.412 237.988 377.469 240.889C380.521 243.78 382.053 247.071 382.053 250.764Z" fill="#7ED957"/>
</svg>
