<svg xmlns="http://www.w3.org/2000/svg" version="1.1" xmlns:xlink="http://www.w3.org/1999/xlink" width="512" height="512" x="0" y="0" viewBox="0 0 511.999 511.999" style="enable-background:new 0 0 512 512" xml:space="preserve" class=""><g><path d="M472.612 39.389C443.22 9.996 401.767-3.688 355.895.858c-45.304 4.49-89.581 26.287-124.671 61.377a229.602 229.602 0 0 0-8.928 9.46 68.493 68.493 0 0 0-14.051-20.348c-26.841-26.841-70.515-26.84-97.355 0-26.977 26.978-26.84 70.958.411 97.762 11.693 11.503 27.233 18.509 43.599 19.601a69.664 69.664 0 0 0 17.952-1.123c-4.735 22.533-5.048 44.654-1.166 65.231l-.135-.001c-.214 20.572-4.648 77.839-22.359 95.551l-35.934 35.934a18.163 18.163 0 0 0-4.933-.692 17.983 17.983 0 0 0-12.801 5.303L39.62 424.816a7.649 7.649 0 0 0 10.817 10.817l55.903-55.903c.715-.715 1.55-.822 1.984-.822s1.265.107 1.979.817l21.979 21.979a2.809 2.809 0 0 1-.006 3.959l-90.221 90.221a2.806 2.806 0 0 1-3.967 0L16.12 473.917a2.806 2.806 0 0 1 0-3.967l9.222-9.222a7.649 7.649 0 0 0-10.817-10.817l-9.222 9.222c-7.07 7.07-7.07 18.533 0 25.603l21.968 21.967c3.529 3.529 8.165 5.294 12.801 5.294s9.272-1.764 12.801-5.294l90.221-90.221c4.794-4.794 6.322-11.627 4.605-17.731l35.94-35.94c17.687-17.687 74.972-22.137 95.553-22.359l-.001-.11a154.406 154.406 0 0 0 15.789 2.113c4.455.366 8.932.549 13.435.549 26.3 0 53.256-6.22 79.017-18.265 3.952-1.848 5.616-6.576 3.62-10.456v-.001c-1.87-3.637-6.285-5.187-9.989-3.453-27.791 13.016-56.976 18.672-84.83 16.38-30.384-2.498-57.022-14.395-77.035-34.405-31.823-31.823-42.64-80.579-29.259-130.983a68.915 68.915 0 0 0 18.307-13.121c16.182-16.182 22.591-38.479 19.262-59.52a212.805 212.805 0 0 1 14.535-16.13c32.596-32.596 73.566-52.829 115.362-56.971 41.229-4.086 78.3 8.034 104.391 34.124 54.283 54.293 44.034 152.873-22.846 219.753a211.246 211.246 0 0 1-26.345 22.371c-3.332 2.386-4.148 6.999-1.884 10.414 2.405 3.627 7.333 4.503 10.87 1.967a226.522 226.522 0 0 0 28.177-23.935c35.091-35.091 56.888-79.365 61.377-124.667 4.544-45.867-9.14-87.32-38.533-116.717zm-350.905 98.495c-8.786-8.788-13.861-19.896-15.25-31.37 11.821 1.424 22.743 6.704 31.326 15.287 8.595 8.595 13.878 19.523 15.297 31.362-11.844-1.421-22.806-6.713-31.373-15.279zm105.524 181.333a131.188 131.188 0 0 0 14.72 8.663c-1.787.224-3.601.465-5.441.727-8.373 1.195-16.037 2.638-22.992 4.322l13.713-13.712zm-18.852-15.594a131.245 131.245 0 0 0 6.628 6.182L138.513 386.3l-12.809-12.81 76.503-76.503a129.866 129.866 0 0 0 6.172 6.636zm-15.577-18.867-13.728 13.728c1.683-6.955 3.127-14.618 4.322-22.992.267-1.873.512-3.72.739-5.538a132.105 132.105 0 0 0 8.667 14.802zm4.625-146.872c-7.993 7.993-18.072 13.133-29.005 14.943-1.541-15.802-8.403-30.425-19.821-41.844-11.408-11.407-26.01-18.267-41.805-19.812 1.768-10.628 6.728-20.826 14.911-29.008 8.185-8.184 18.383-13.145 29.014-14.912 1.535 15.784 8.389 30.393 19.804 41.807 11.419 11.42 26.025 18.297 41.81 19.832-1.77 10.625-6.729 20.816-14.908 28.994zm-16.084-59.641c-8.591-8.591-13.868-19.507-15.281-31.328 11.473 1.39 22.58 6.463 31.366 15.25 8.786 8.784 13.859 19.891 15.249 31.364-11.829-1.414-22.739-6.69-31.334-15.286z" fill="#000000" opacity="1" data-original="#000000" data-darkreader-inline-fill="" style="--darkreader-inline-fill: #000000;" class=""></path><path d="M446.359 65.645c-21.381-21.381-52.207-31.269-86.804-27.842-36.787 3.644-73.039 21.643-102.078 50.683-29.04 29.039-47.039 65.291-50.683 102.078-3.427 34.596 6.461 65.424 27.842 86.805 18.605 18.605 44.361 28.507 73.531 28.507 4.352 0 8.782-.22 13.274-.666 36.787-3.644 73.039-21.644 102.078-50.683 29.04-29.04 47.039-65.291 50.683-102.078 3.425-34.595-6.462-65.424-27.843-86.804zm-5.684 16.501c6.888 8.426 11.967 18.293 15.111 29.221l-22.167-22.166 7.056-7.055zm-171.667 89.361 30.336-30.336 30.335 30.335-30.336 30.336-30.335-30.335zm19.518 41.153-30.338 30.338-30.335-30.335 30.338-30.338 30.335 30.335zm21.638-82.309 30.329-30.329 30.335 30.335-30.329 30.329-30.335-30.335zm30.333 51.973 30.332 30.332-30.336 30.336-30.332-30.332 30.336-30.336zm10.82-10.82 30.329-30.329 30.332 30.332-30.329 30.329-30.332-30.332zm41.146-41.147 30.338-30.338 30.332 30.332-30.338 30.338-30.332-30.332zm37.387-59.022-7.05 7.05-22.14-22.141c10.916 3.145 20.773 8.211 29.19 15.091zm-48.201-12.468 30.335 30.335-30.338 30.338-30.336-30.335 30.339-30.338zm-20.587-5.84c1.743-.172 3.471-.3 5.188-.397l-25.758 25.758-16.307-16.307c12.035-4.75 24.433-7.821 36.877-9.054zm-51.711 15.854 20.324 20.324-30.329 30.329-25.523-25.523c11.008-10.108 22.98-18.551 35.528-25.13zm-46.349 35.951 25.524 25.522-30.336 30.336-20.323-20.322c6.579-12.55 15.025-24.525 25.135-35.536zm-40.986 87.24c1.233-12.442 4.304-24.838 9.052-36.87l16.305 16.305-25.757 25.757c.097-1.718.227-3.448.4-5.192zm18.302 68.795c-6.885-8.423-11.961-18.286-15.107-29.21l22.159 22.159-7.052 7.051zm10.818 10.818 7.052-7.052 22.159 22.159c-10.925-3.145-20.787-8.222-29.211-15.107zm48.201 12.463-30.332-30.332 30.338-30.338 30.332 30.332-30.338 30.338zm20.594 5.839c-1.745.173-3.478.304-5.198.4l25.76-25.76 16.308 16.308c-12.032 4.749-24.427 7.819-36.87 9.052zm51.705-15.852-20.325-20.325 30.335-30.336L407.173 249c-11.011 10.11-22.986 18.556-35.537 25.135zm46.356-35.954-25.526-25.526 30.329-30.329 20.327 20.327c-6.579 12.547-15.023 24.52-25.13 35.528zm40.985-87.24c-1.233 12.445-4.305 24.843-9.054 36.877l-16.31-16.31 25.764-25.764c-.097 1.72-.228 3.452-.4 5.197z" fill="#000000" opacity="1" data-original="#000000" data-darkreader-inline-fill="" style="--darkreader-inline-fill: #000000;" class=""></path></g></svg>
