<svg xmlns="http://www.w3.org/2000/svg" xmlns:xlink="http://www.w3.org/1999/xlink" width="500" zoomAndPan="magnify" viewBox="0 0 375 374.999991" height="500" preserveAspectRatio="xMidYMid meet" version="1.0"><defs><g/><clipPath id="4b076ba926"><path d="M 37.5 10.503906 L 337.5 10.503906 L 337.5 310.503906 L 37.5 310.503906 Z M 37.5 10.503906 " clip-rule="nonzero"/></clipPath><clipPath id="60c98eac1d"><path d="M 187.5 10.503906 C 104.65625 10.503906 37.5 77.660156 37.5 160.503906 C 37.5 243.34375 104.65625 310.503906 187.5 310.503906 C 270.34375 310.503906 337.5 243.34375 337.5 160.503906 C 337.5 77.660156 270.34375 10.503906 187.5 10.503906 Z M 187.5 10.503906 " clip-rule="nonzero"/></clipPath><clipPath id="42ecf57a62"><path d="M 86 0 L 311 0 L 311 125 L 86 125 Z M 86 0 " clip-rule="nonzero"/></clipPath><clipPath id="9b9f30d159"><path d="M 310.976562 82.617188 L 152.226562 155.664062 L 86.078125 11.902344 L 244.828125 -61.144531 Z M 310.976562 82.617188 " clip-rule="nonzero"/></clipPath><clipPath id="4b15334f92"><path d="M 491.542969 104.097656 L 76.613281 295.019531 L -101.457031 -91.980469 L 313.476562 -282.902344 Z M 491.542969 104.097656 " clip-rule="nonzero"/></clipPath><clipPath id="a79ba4f21d"><path d="M 44 144 L 296 144 L 296 345 L 44 345 Z M 44 144 " clip-rule="nonzero"/></clipPath><clipPath id="89ac31b7e9"><path d="M 295.339844 318.765625 L 140.476562 399.726562 L 44.570312 216.285156 L 199.433594 135.324219 Z M 295.339844 318.765625 " clip-rule="nonzero"/></clipPath><clipPath id="9c36fe7000"><path d="M 378.519531 321.105469 L -26.253906 532.71875 L -223.617188 155.199219 L 181.152344 -56.414062 Z M 378.519531 321.105469 " clip-rule="nonzero"/></clipPath></defs><g clip-path="url(#4b076ba926)"><g clip-path="url(#60c98eac1d)"><path fill="#000000" d="M 37.5 10.503906 L 337.5 10.503906 L 337.5 310.503906 L 37.5 310.503906 Z M 37.5 10.503906 " fill-opacity="1" fill-rule="nonzero"/></g></g><g clip-path="url(#42ecf57a62)"><g clip-path="url(#9b9f30d159)"><g clip-path="url(#4b15334f92)"><path fill="#ffffff" d="M 448.363281 81.109375 C 434.316406 102.109375 405.980469 97.914062 387.511719 85.523438 C 367.722656 72.222656 355.320312 51.800781 338.570312 35.335938 C 323.976562 21.003906 306.238281 9.796875 285 11.324219 C 264.871094 12.777344 248.523438 25.410156 234.289062 38.65625 C 221.128906 50.878906 206.335938 69.246094 187.210938 71.257812 C 160.082031 74.132812 143.859375 45.210938 135.300781 24.046875 C 126.726562 2.792969 119.0625 -21.945312 94.046875 -28.289062 C 69.03125 -34.628906 53.152344 -12.289062 37.082031 2.757812 C 17.671875 20.925781 -11.683594 34.1875 -24.445312 1.875 C -35.644531 -26.507812 -39.054688 -59.648438 -45.535156 -89.425781 C -49.382812 -107.089844 -77.167969 -102.609375 -73.320312 -84.886719 C -66.90625 -55.449219 -62.121094 -25.046875 -53.378906 3.78125 C -46.289062 27.144531 -31.207031 48.066406 -5.089844 50.335938 C 20.0625 52.523438 41.664062 37.503906 58.792969 20.847656 C 65.519531 14.3125 78.785156 -4.746094 89.585938 -0.261719 C 102.652344 5.164062 106.636719 28.773438 111.640625 40.386719 C 121.773438 63.898438 137.828125 86.386719 162.710938 95.609375 C 185.09375 103.90625 207.171875 97.53125 225.816406 83.898438 C 243.160156 71.207031 256.625 50.628906 276.683594 42.019531 C 300.28125 31.875 318.363281 53.867188 331.960938 70.078125 C 350.386719 92.070312 371.273438 114.628906 400.203125 121.800781 C 426.625 128.367188 455.933594 120.460938 471.449219 97.265625 C 481.511719 82.222656 458.492188 66.003906 448.363281 81.109375 Z M 448.363281 81.109375 " fill-opacity="1" fill-rule="nonzero"/></g></g></g><g clip-path="url(#a79ba4f21d)"><g clip-path="url(#89ac31b7e9)"><g clip-path="url(#9c36fe7000)"><path fill="#ffffff" d="M 334.234375 300.328125 C 321.265625 322.007812 292.753906 319.25 273.679688 307.808594 C 253.246094 295.519531 239.828125 275.75 222.269531 260.148438 C 206.972656 246.574219 188.691406 236.273438 167.554688 238.875 C 147.527344 241.339844 131.839844 254.78125 118.289062 268.730469 C 105.765625 281.597656 91.914062 300.6875 72.914062 303.664062 C 45.964844 307.90625 28.308594 279.835938 18.6875 259.132812 C 9.058594 238.335938 0.15625 214.015625 -25.148438 208.945312 C -50.453125 203.875 -65.183594 226.984375 -80.476562 242.828125 C -98.945312 261.949219 -127.59375 276.671875 -141.96875 245.046875 C -154.585938 217.265625 -159.664062 184.335938 -167.636719 154.925781 C -172.375 137.480469 -199.898438 143.355469 -195.160156 160.863281 C -187.269531 189.9375 -180.957031 220.058594 -170.773438 248.414062 C -162.511719 271.386719 -146.394531 291.519531 -120.195312 292.46875 C -94.964844 293.386719 -74.148438 277.292969 -57.878906 259.796875 C -51.492188 252.933594 -39.207031 233.226562 -28.191406 237.160156 C -14.867188 241.917969 -9.699219 265.300781 -4.117188 276.644531 C 7.191406 299.613281 24.359375 321.265625 49.675781 329.222656 C 72.449219 336.378906 94.175781 328.894531 112.109375 314.339844 C 128.792969 300.789062 141.203125 279.5625 160.800781 269.949219 C 183.855469 258.628906 203.027344 279.675781 217.425781 295.183594 C 236.933594 316.214844 258.933594 337.691406 288.1875 343.398438 C 314.90625 348.621094 343.777344 339.246094 358.105469 315.296875 C 367.394531 299.765625 343.585938 284.730469 334.234375 300.328125 Z M 334.234375 300.328125 " fill-opacity="1" fill-rule="nonzero"/></g></g></g><g fill="#000000" fill-opacity="1"><g transform="translate(127.210396, 370.215849)"><g><path d="M 6.765625 0 L 6.765625 -41.96875 L 0.609375 -41.96875 L 0.609375 -51.9375 L 23.34375 -51.9375 L 23.34375 -41.96875 L 17.171875 -41.96875 L 17.171875 0 Z M 6.765625 0 "/></g></g></g><g fill="#000000" fill-opacity="1"><g transform="translate(151.153951, 370.215849)"><g><path d="M 2.296875 0 L 2.296875 -51.9375 L 23.09375 -51.9375 L 23.09375 -41.90625 L 12.875 -41.90625 L 12.875 -31.8125 L 22.671875 -31.8125 L 22.671875 -22.015625 L 12.875 -22.015625 L 12.875 -10.09375 L 23.765625 -10.09375 L 23.765625 0 Z M 2.296875 0 "/></g></g></g><g fill="#000000" fill-opacity="1"><g transform="translate(176.064914, 370.215849)"><g><path d="M 2.296875 0 L 2.296875 -51.9375 L 13 -51.9375 L 17.78125 -27.09375 L 17.78125 -51.9375 L 27.8125 -51.9375 L 27.8125 0 L 17.65625 0 L 12.453125 -26 L 12.453125 0 Z M 2.296875 0 "/></g></g></g><g fill="#000000" fill-opacity="1"><g transform="translate(206.17574, 370.215849)"><g><path d="M 1.8125 0 L 1.8125 -51.9375 L 11.859375 -51.9375 L 11.859375 0 Z M 1.8125 0 "/></g></g></g><g fill="#000000" fill-opacity="1"><g transform="translate(219.900964, 370.215849)"><g><path d="M 14.640625 0.484375 C 9.921875 0.484375 6.507812 -0.679688 4.40625 -3.015625 C 2.3125 -5.359375 1.265625 -9.128906 1.265625 -14.328125 L 1.265625 -19.40625 L 11.484375 -19.40625 L 11.484375 -12.9375 C 11.484375 -10.351562 12.3125 -9.0625 13.96875 -9.0625 C 14.894531 -9.0625 15.539062 -9.332031 15.90625 -9.875 C 16.269531 -10.425781 16.453125 -11.347656 16.453125 -12.640625 C 16.453125 -14.328125 16.25 -15.722656 15.84375 -16.828125 C 15.4375 -17.941406 14.921875 -18.867188 14.296875 -19.609375 C 13.671875 -20.359375 12.550781 -21.519531 10.9375 -23.09375 L 6.46875 -27.578125 C 3 -30.960938 1.265625 -34.710938 1.265625 -38.828125 C 1.265625 -43.253906 2.28125 -46.625 4.3125 -48.9375 C 6.351562 -51.257812 9.332031 -52.421875 13.25 -52.421875 C 17.914062 -52.421875 21.273438 -51.179688 23.328125 -48.703125 C 25.390625 -46.222656 26.421875 -42.34375 26.421875 -37.0625 L 15.84375 -37.0625 L 15.78125 -40.640625 C 15.78125 -41.316406 15.585938 -41.859375 15.203125 -42.265625 C 14.828125 -42.671875 14.296875 -42.875 13.609375 -42.875 C 12.796875 -42.875 12.1875 -42.648438 11.78125 -42.203125 C 11.382812 -41.765625 11.1875 -41.160156 11.1875 -40.390625 C 11.1875 -38.703125 12.15625 -36.945312 14.09375 -35.125 L 20.140625 -29.328125 C 21.546875 -27.953125 22.710938 -26.648438 23.640625 -25.421875 C 24.566406 -24.191406 25.3125 -22.738281 25.875 -21.0625 C 26.445312 -19.394531 26.734375 -17.410156 26.734375 -15.109375 C 26.734375 -9.992188 25.796875 -6.113281 23.921875 -3.46875 C 22.046875 -0.832031 18.953125 0.484375 14.640625 0.484375 Z M 14.640625 0.484375 "/></g></g></g></svg>