<svg xmlns="http://www.w3.org/2000/svg" xmlns:xlink="http://www.w3.org/1999/xlink" width="500" zoomAndPan="magnify" viewBox="0 0 375 374.999991" height="500" preserveAspectRatio="xMidYMid meet" version="1.0"><defs><g/><clipPath id="d73862324c"><path d="M 36.867188 4.417969 L 338.367188 4.417969 L 338.367188 305.917969 L 36.867188 305.917969 Z M 36.867188 4.417969 " clip-rule="nonzero"/></clipPath></defs><g clip-path="url(#d73862324c)"><path fill="#000000" d="M 187.527344 4.417969 C 104.351562 4.417969 36.867188 71.902344 36.867188 155.078125 C 36.867188 238.191406 104.351562 305.671875 187.527344 305.671875 C 270.640625 305.671875 338.121094 238.191406 338.121094 155.078125 C 338.121094 71.902344 270.640625 4.417969 187.527344 4.417969 Z M 167.003906 17.699219 C 165.796875 17.699219 171.832031 16.492188 176.660156 16.492188 C 180.28125 16.492188 183.902344 16.492188 187.527344 16.492188 C 238.105469 16.492188 281.503906 42.988281 305.589844 82.765625 C 308.003906 86.386719 311.625 93.632812 311.625 93.632812 C 269.433594 67.074219 218.851562 53.855469 167.003906 61.035156 C 165.855469 46.609375 165.855469 32.125 167.003906 17.699219 Z M 95.960938 51.441406 C 97.167969 50.234375 100.789062 46.609375 104.410156 44.195312 C 117.691406 34.539062 132.117188 27.355469 147.808594 22.527344 C 151.429688 21.320312 156.257812 20.113281 155.050781 20.113281 C 151.429688 61.097656 158.675781 104.433594 180.34375 143.003906 C 168.269531 163.464844 153.84375 180.367188 136.945312 193.585938 C 104.351562 151.457031 91.132812 100.8125 95.960938 51.441406 C 95.960938 51.441406 94.753906 51.441406 95.960938 51.441406 Z M 70.609375 229.742188 C 70.609375 228.535156 65.78125 221.292969 63.367188 216.460938 C 53.710938 198.414062 48.878906 176.683594 48.878906 155.015625 C 48.878906 123.691406 58.539062 95.984375 76.585938 73.109375 C 79 68.28125 83.828125 63.453125 82.621094 64.660156 C 81.414062 112.886719 95.898438 161.050781 127.226562 202.035156 C 109.179688 214.109375 91.132812 223.765625 70.609375 229.742188 Z M 118.835938 275.554688 C 105.558594 267.105469 92.339844 257.507812 82.679688 245.433594 C 80.265625 243.019531 77.851562 240.605469 79.058594 240.605469 C 124.871094 224.914062 164.589844 193.585938 191.148438 149.039062 C 214.023438 149.039062 236.960938 153.871094 257.421875 161.113281 C 233.277344 220.144531 182.695312 262.273438 126.078125 277.96875 C 127.289062 280.382812 122.457031 277.96875 118.835938 275.554688 Z M 318.867188 198.414062 C 318.867188 199.621094 317.660156 202.035156 316.453125 204.449219 C 295.992188 256.300781 246.558594 293.601562 187.527344 293.601562 C 173.039062 293.601562 158.613281 291.1875 145.335938 287.566406 C 144.128906 287.566406 142.921875 286.359375 142.921875 286.359375 C 198.332031 265.898438 244.144531 223.707031 268.226562 165.882812 C 287.542969 174.332031 304.382812 185.195312 318.867188 198.414062 Z M 322.488281 186.402344 C 286.335938 156.285156 240.582031 138.175781 191.148438 137.03125 C 180.28125 116.566406 171.894531 94.839844 168.269531 73.167969 C 223.679688 65.925781 277.945312 81.621094 320.074219 114.152344 C 318.867188 111.738281 321.28125 116.566406 322.488281 121.394531 C 324.902344 132.261719 326.109375 143.066406 326.109375 155.136719 C 326.109375 162.378906 326.109375 169.625 324.902344 175.597656 C 323.695312 180.367188 322.488281 185.195312 322.488281 186.402344 Z M 322.488281 186.402344 " fill-opacity="1" fill-rule="nonzero"/></g><g fill="#000000" fill-opacity="1"><g transform="translate(110.685153, 363.870424)"><g><path d="M 6.890625 0 L 0.640625 -50.671875 L 10.3125 -50.671875 L 14.015625 -16.203125 L 17.328125 -50.671875 L 26.984375 -50.671875 L 20.734375 0 Z M 6.890625 0 "/></g></g></g><g fill="#000000" fill-opacity="1"><g transform="translate(138.318109, 363.870424)"><g><path d="M 14.3125 0.46875 C 10.226562 0.46875 7.125 -0.773438 5 -3.265625 C 2.882812 -5.765625 1.828125 -9.269531 1.828125 -13.78125 L 1.828125 -37.890625 C 1.828125 -42.242188 2.882812 -45.53125 5 -47.75 C 7.125 -49.96875 10.226562 -51.078125 14.3125 -51.078125 C 18.40625 -51.078125 21.507812 -49.96875 23.625 -47.75 C 25.75 -45.53125 26.8125 -42.242188 26.8125 -37.890625 L 26.8125 -13.78125 C 26.8125 -9.226562 25.75 -5.710938 23.625 -3.234375 C 21.507812 -0.765625 18.40625 0.46875 14.3125 0.46875 Z M 14.3125 -8.84375 C 15.21875 -8.84375 15.828125 -9.234375 16.140625 -10.015625 C 16.453125 -10.796875 16.609375 -11.894531 16.609375 -13.3125 L 16.609375 -38.0625 C 16.609375 -39.164062 16.460938 -40.0625 16.171875 -40.75 C 15.878906 -41.4375 15.28125 -41.78125 14.375 -41.78125 C 12.6875 -41.78125 11.84375 -40.503906 11.84375 -37.953125 L 11.84375 -13.25 C 11.84375 -11.800781 12.019531 -10.703125 12.375 -9.953125 C 12.726562 -9.210938 13.375 -8.84375 14.3125 -8.84375 Z M 14.3125 -8.84375 "/></g></g></g><g fill="#000000" fill-opacity="1"><g transform="translate(166.952677, 363.870424)"><g><path d="M 2.234375 0 L 2.234375 -50.609375 L 12.375 -50.609375 L 12.375 -8.609375 L 22.796875 -8.609375 L 22.796875 0 Z M 2.234375 0 "/></g></g></g><g fill="#000000" fill-opacity="1"><g transform="translate(190.343477, 363.870424)"><g><path d="M 2.234375 0 L 2.234375 -50.609375 L 12.375 -50.609375 L 12.375 -8.609375 L 22.796875 -8.609375 L 22.796875 0 Z M 2.234375 0 "/></g></g></g><g fill="#000000" fill-opacity="1"><g transform="translate(213.734277, 363.870424)"><g><path d="M 2.234375 0 L 2.234375 -50.609375 L 22.515625 -50.609375 L 22.515625 -40.828125 L 12.546875 -40.828125 L 12.546875 -31 L 22.09375 -31 L 22.09375 -21.453125 L 12.546875 -21.453125 L 12.546875 -9.84375 L 23.15625 -9.84375 L 23.15625 0 Z M 2.234375 0 "/></g></g></g><g fill="#000000" fill-opacity="1"><g transform="translate(238.00885, 363.870424)"><g><path d="M 8.359375 0 L 8.359375 -16.671875 L 0.296875 -50.609375 L 10.3125 -50.609375 L 13.140625 -33.46875 L 15.96875 -50.609375 L 25.984375 -50.609375 L 17.90625 -16.671875 L 17.90625 0 Z M 8.359375 0 "/></g></g></g></svg>