<svg xmlns="http://www.w3.org/2000/svg" version="1.1" xmlns:xlink="http://www.w3.org/1999/xlink" width="512" height="512" x="0" y="0" viewBox="0 0 64 64" style="enable-background:new 0 0 512 512" xml:space="preserve" class=""><g><path d="M23 26.6c.7 3 1.9 5.9 3.7 8.6 1.2-1 2.3-2.1 3.4-3.3-1.5-3.8-2.3-7.9-2.3-12 0-2.5.3-5.1.8-7.6.3-1.4.7-2.8 1.2-4.2-1.7.2-3.3.5-4.8.9-.6 1.2-1.2 2.9-1.8 5-.8 3.5-1.3 7.8-.2 12.6zM40.4 17.8c-2.8-.6-5.6-.8-8.5-.7-.1 1-.1 2-.1 2.9v1.5c4 0 7.9.6 11.7 1.9 3 1 5.6 2.3 7.8 3.8 1.7 1.1 3.3 2.3 4.6 3.5-.1-2.2-.5-4.3-1.2-6.3-2-1.5-4.2-2.8-6.5-3.9a27.8 27.8 0 0 0-7.8-2.7zM15.1 31.7c.8 2.8 2 5.5 3.6 8.1 1.1-.4 2.1-.8 3.3-1.4.5-.3 1-.5 1.4-.8-2-3.1-3.5-6.5-4.3-10-.8-3.7-.8-7.1-.5-10.2.3-2.2.7-4.2 1.3-5.9-1.8 1-3.4 2.3-4.8 3.7-.6 2.3-1.1 5.2-1.1 8.5 0 2.4.3 5.1 1.1 8zM32.5 13c2.3 0 4.6.2 6.9.5l1.8.3c3.3.7 6.6 1.9 9.6 3.4-4-5.1-9.9-8.5-16.7-9.1-.5 1.3-1 2.6-1.4 3.9 0 .4-.1.7-.2 1zM14.6 40.8c-.7-1.2-1.3-2.4-1.9-3.7-.6-1.4-1.1-2.9-1.6-4.4-1-3.6-1.3-7-1.3-10.1-1.2 2.9-1.9 6-1.9 9.3s.7 6.4 1.9 9.3c1.2 0 2.6-.1 4.2-.4.3.1.5 0 .6 0zM41.6 45.5c1.7-2.1 3.1-4.4 4.3-6.9-1-.7-2.1-1.3-3.3-1.9-.2-.1-.4-.2-.7-.3-1.6 3.5-3.8 6.5-6.6 9-3 2.7-6.3 4.4-9.3 5.5-2.3.8-4.5 1.2-6.4 1.5 2.1 1.3 4.5 2.2 7 2.8 2.4-.7 5.1-1.9 7.8-3.6 2.5-1.4 5-3.4 7.2-6.1zM51.9 32.5c-2.5-2-5.7-4-9.7-5.4-3.2-1.1-6.5-1.7-9.9-1.7.3 1.6.7 3.2 1.3 4.7 3.8.4 7.4 1.4 10.8 3.1 2.4 1.2 4.7 2.7 6.8 4.4 1.1.9 2.2 2 3.2 3.1.6-1.5 1-3.1 1.3-4.7-1.1-1.1-2.4-2.3-3.8-3.5zM20.6 48.3c3.6-.6 8.1-2.2 12.1-5.7 2.3-2.1 4.1-4.6 5.5-7.5-1.6-.5-3.1-.8-4.8-1-2.7 3.2-6 5.9-9.6 7.8-2.3 1.2-4.7 2-7.2 2.6-1.5.3-3 .6-4.5.7.9 1.3 1.8 2.5 2.9 3.6 1.2 0 3.2-.1 5.6-.5zM49.5 41.5c-.1-.1-.3-.2-.4-.3-.7 1.5-1.6 2.9-2.5 4.3-.6.9-1.3 1.8-2 2.6-2.7 3.3-5.8 5.7-8.9 7.5 7-1.1 13-5.3 16.5-11.1-.7-1-1.7-2.1-2.7-3z" fill="#000000" opacity="1" data-original="#000000" data-darkreader-inline-fill="" style="--darkreader-inline-fill: #000000;" class=""></path></g></svg>